<?xml version="1.0" encoding="utf-8"?>
<!-- Generator: Adobe Illustrator 22.1.0, SVG Export Plug-In . SVG Version: 6.00 Build 0)  -->
<svg version="1.1" id="Calque_1" xmlns="http://www.w3.org/2000/svg" xmlns:xlink="http://www.w3.org/1999/xlink" x="0px" y="0px"
	 viewBox="0 0 401.3 23.4" style="enable-background:new 0 0 401.3 23.4;" xml:space="preserve">
<style type="text/css">
	.st0{fill:none;stroke:#FF00FF;stroke-width:0.4;stroke-miterlimit:10;}
	.st1{fill:none;stroke:#FFFF00;stroke-width:0.4;stroke-miterlimit:10;}
</style>
<g>
	<path class="st0" d="M4.7,12l-2,2.8l-1.3-1l2.1-2.6l-3.3-1l0.5-1.5l3.1,1.1V6.4h1.6v3.3l3.2-1.1l0.5,1.5l-3.2,1l2,2.7l-1.3,0.9
		L4.7,12z"/>
	<path class="st1" d="M27.6,21.9h-4.9L17.8,1.3h3.4l4.1,18.2h0.1l5.6-18.2h2.8l5.8,18.5h0.1l4.5-18.5h3.3L42,21.9h-5L32.4,6.2h-0.1
		L27.6,21.9z"/>
	<path class="st1" d="M50.1,1.3h15.8v2.9H53.4v5.6H66v2.9H53.4V19h12.7v2.9h-16V1.3z"/>
	<path class="st1" d="M70,1.3h3.3v17.8h10.6v2.8H70V1.3z"/>
	<path class="st1" d="M107.5,14.8c-0.5,4.3-4.4,7.6-10.2,7.6c-7.2,0-11.4-4.6-11.4-10.8c0-6.4,4-10.8,11.4-10.8
		c5.8,0,9.4,3,10.2,7.3h-3.5c-0.9-2.2-2.9-4.3-6.6-4.3c-4.9,0-7.9,2.7-7.9,7.8c0,4.7,3.3,7.9,8,7.9c3.8,0,6.1-2.5,6.7-4.7H107.5z"/>
	<path class="st1" d="M110.2,11.6c0-6.7,4.1-10.8,11.2-10.8c7.3,0,11.2,4.3,11.2,10.8c0,7-4.3,10.8-11.2,10.8
		C114.3,22.4,110.2,18.3,110.2,11.6z M121.4,3.8c-4.6,0-7.7,3.1-7.7,7.8c0,4.8,3.4,7.8,7.7,7.8c4.6,0,7.7-3.2,7.7-7.8
		C129.1,6.9,126,3.8,121.4,3.8z"/>
	<path class="st1" d="M136.4,1.3h5.4l6.1,17.1h0.1l5.8-17.1h5.3v20.6H156V4.2h-0.1L150,21.9l-4.1,0l-6.3-17.6h-0.1v17.6h-3.1V1.3z"
		/>
	<path class="st1" d="M163.9,1.3h15.8v2.9h-12.5v5.6h12.6v2.9h-12.6V19h12.7v2.9h-16V1.3z"/>
	<path class="st1" d="M205.9,1.3V4h-6.8v17.9h-3.3V4H189V1.3H205.9z"/>
	<path class="st1" d="M207.6,11.6c0-6.7,4.1-10.8,11.2-10.8c7.3,0,11.2,4.3,11.2,10.8c0,7-4.3,10.8-11.2,10.8
		C211.7,22.4,207.6,18.3,207.6,11.6z M218.8,3.8c-4.6,0-7.7,3.1-7.7,7.8c0,4.8,3.4,7.8,7.7,7.8c4.6,0,7.7-3.2,7.7-7.8
		C226.5,6.9,223.4,3.8,218.8,3.8z"/>
	<path class="st1" d="M241.2,1.3H257v2.9h-12.5v5.6h12.6v2.9h-12.6v9.3l-3.3,0V1.3z"/>
	<path class="st1" d="M260.5,1.3h3.3v13c0,3.5,2.8,5.1,6.1,5.1c3.7,0,5.9-1.8,5.9-5.1v-13h3.3v13.4c0,5.4-3.9,7.7-9.4,7.7
		c-5.1,0-9.1-2.2-9.1-7.7V1.3z"/>
	<path class="st1" d="M283.7,21.9V1.3h12.9c3.6,0,5.5,2.5,5.5,5.3c0,2.7-1.3,3.9-3.2,4.7v0.1c1.7,0.4,2.1,1.5,2.3,3.2
		c0.3,3.3,0.6,7.3,0.6,7.3h-3.3c0,0-0.3-4-0.6-6.5c-0.2-2.2-1.6-2.6-3.3-2.6H287v9.1H283.7z M287,4.1v5.8h7.7c2.7,0,3.9-1.4,3.9-2.9
		c0-1.9-1.3-2.8-3.9-2.8H287z"/>
	<path class="st1" d="M306.3,21.9V1.3h12.2c3.1,0,5.7,1.8,5.7,5.3c0,2.2-0.9,4-3.6,4.8v0.1c2.4,0.8,4,2.3,4,4.9
		c0,3.4-2.2,5.6-6.3,5.6H306.3z M309.6,4v6h7.5c2.1,0,3.8-1,3.8-3.2c0-1.6-1.4-2.8-3.6-2.8H309.6z M309.6,12.7v6.5h7.6
		c2.2,0,3.8-0.9,3.8-3.1c0-2.2-1.7-3.4-4-3.4H309.6z"/>
	<path class="st1" d="M326.7,1.3h4l6.3,9.6h0.1l6.3-9.6h3.6l-8.2,12.8v7.8H335V14L326.7,1.3z"/>
	<path class="st1" d="M355,4.8V2.4l2.2-1.1h3.2v20.6h-3.3V4L355,4.8z"/>
	<path class="st1" d="M364.2,11.6c0-6.4,3-10.8,9.7-10.8c6.7,0,9.6,4.4,9.6,10.8c0,6.4-3.1,10.8-9.6,10.8
		C367.2,22.4,364.2,18.2,364.2,11.6z M373.9,3.6c-4.3,0-6.5,3.4-6.5,8c0,4.5,2,8,6.5,8c4.7,0,6.4-3.8,6.4-8
		C380.4,7,378.3,3.6,373.9,3.6z"/>
	<path class="st1" d="M385.6,4.8V2.4l2.2-1.1h3.2v20.6h-3.3V4L385.6,4.8z"/>
	<path class="st0" d="M406.1,12l-2,2.8l-1.3-1l2.1-2.6l-3.3-1l0.5-1.5l3.1,1.1V6.4h1.6v3.3l3.2-1.1l0.5,1.5l-3.2,1l2,2.7l-1.3,0.9
		L406.1,12z"/>
</g>
</svg>
