<?xml version="1.0" encoding="utf-8"?>
<!-- Generator: Adobe Illustrator 22.1.0, SVG Export Plug-In . SVG Version: 6.00 Build 0)  -->
<svg version="1.1" id="Calque_1" xmlns="http://www.w3.org/2000/svg" xmlns:xlink="http://www.w3.org/1999/xlink" x="0px" y="0px"
	 viewBox="0 0 425 425" style="enable-background:new 0 0 425 425;" xml:space="preserve">
<style type="text/css">
	.st0{fill-rule:evenodd;clip-rule:evenodd;fill:url(#SVGID_1_);}
	.st1{fill-rule:evenodd;clip-rule:evenodd;fill:url(#SVGID_2_);}
	.st2{fill-rule:evenodd;clip-rule:evenodd;fill:url(#SVGID_3_);}
	.st3{fill-rule:evenodd;clip-rule:evenodd;fill:url(#SVGID_4_);}
	.st4{fill-rule:evenodd;clip-rule:evenodd;fill:url(#SVGID_5_);}
	.st5{fill-rule:evenodd;clip-rule:evenodd;fill:url(#SVGID_6_);}
	.st6{fill-rule:evenodd;clip-rule:evenodd;fill:url(#SVGID_7_);}
	.st7{fill-rule:evenodd;clip-rule:evenodd;fill:url(#SVGID_8_);}
	.st8{fill-rule:evenodd;clip-rule:evenodd;fill:url(#SVGID_9_);}
	.st9{fill-rule:evenodd;clip-rule:evenodd;fill:url(#SVGID_10_);}
	.st10{fill-rule:evenodd;clip-rule:evenodd;fill:url(#SVGID_11_);}
	.st11{fill-rule:evenodd;clip-rule:evenodd;fill:url(#SVGID_12_);}
	.st12{fill-rule:evenodd;clip-rule:evenodd;fill:url(#SVGID_13_);}
	.st13{fill-rule:evenodd;clip-rule:evenodd;fill:url(#SVGID_14_);}
	.st14{fill-rule:evenodd;clip-rule:evenodd;fill:url(#SVGID_15_);}
</style>
<g>
	<linearGradient id="SVGID_1_" gradientUnits="userSpaceOnUse" x1="250.8348" y1="205.9252" x2="327.4564" y2="205.9252">
		<stop  offset="0" style="stop-color:#FCEE21"/>
		<stop  offset="0.1647" style="stop-color:#FCCC40"/>
		<stop  offset="0.5297" style="stop-color:#FE7790"/>
		<stop  offset="1" style="stop-color:#FF00FF"/>
	</linearGradient>
	<path class="st0" d="M255,156c-2.1-0.3-3.7-1.9-3.8-4c-0.2-4.8,8.5-9.7,14.9-11.2c10.8-2.4,19.7,2.7,24.4,14
		c6.1,14.8,5.4,30,5.1,36.5c0,1-0.1,2.1-0.1,2.5c-0.1-0.9-0.9-2.4-2.6-2.9c-1.7-0.5-3.1,0.3-3.8,1.3c2.7-3.9,7.5-5.8,13-5.2
		c8.4,0.9,16.4,7.3,20.3,16.3c7.1,16.4,8.9,52.9-9.5,63.3c-9.2,5.2-17.2,6.3-23.7,3.3c-4.6-2.1-10.6-7.4-13.1-20.5
		c0-0.1-0.1-0.3-0.1-0.4c0.3,1.3,1.6,2.7,3.4,2.7l0,0l3.7-2.6l0,0c-4.6,13.7-14.8,16.5-20.4,16.9c-1.5,0.1-9,0.5-10.7-3l0,0
		l-1.1-2.2l0,0c0,0,1.6-1.9,1.6-1.9c10.7-12.5,12.9-37.7,13.6-58.2c0.7-19.8-0.7-33.3-3.9-40.1c-2-4.2-3.9-4.3-6.1-4.5
		C255.7,156.1,255.3,156.1,255,156L255,156L255,156L255,156z M295.1,232.7c2.1,5.5,5,9.4,7.8,10.7c1.1,0.5,2.2,0.6,3.2,0.2
		c2.6-1,3.9-8.2,0.2-17.8c-3.7-9.6-8.3-13.8-10.8-12.8C293.4,213.7,291.1,222,295.1,232.7L295.1,232.7L295.1,232.7L295.1,232.7z"/>
	<linearGradient id="SVGID_2_" gradientUnits="userSpaceOnUse" x1="305.9828" y1="267.4435" x2="401.1667" y2="267.4435">
		<stop  offset="0" style="stop-color:#FCEE21"/>
		<stop  offset="0.1647" style="stop-color:#FCCC40"/>
		<stop  offset="0.5297" style="stop-color:#FE7790"/>
		<stop  offset="1" style="stop-color:#FF00FF"/>
	</linearGradient>
	<path class="st1" d="M332.4,203.1c-0.4-4.1,3.9-7.3,8.3-8.7c5.8-1.8,13.5-1,17.7,6.7c5.1,9.5,4.5,24.7,4.1,34.7
		c-0.1,3.2-0.3,6.3-0.1,7.5c0.2,1.3,0.7,2.7,1.5,2.8c1,0.1,3-1.1,4.1-4c5.7-15.4,3.3-28.7,2-33.7c-0.9-3.4,0.5-6.6,3.3-7.6
		c1.3-0.5,5.8-1.3,9.3,6.6c6.6,14.9,3.8,40.1,2.9,48.4c-0.1,0.8-0.2,1.6-0.2,1.8c0-0.6-0.2-2-1.4-2.9l0,0l-3.4-0.6l0,0
		c4.5-1.3,9.4-1.6,14.7-0.7c3.2,0.5,4.7,4.1,5.1,5.2c1,2.8,0.7,5.5-0.9,7.2c-0.8,0.9-2.7,2.3-6.1,1.5c-4.7-1.1-10.1-0.6-10.9,2.3
		c-2.2,7.8-15.3,32-19.4,37.9c-4,5.7-18,22.1-34.6,30c-8.6,4.1-14.2,4.9-18,2.7c-4.1-2.4-4.5-7.3-4.6-9c-0.9-12.2,2.9-19,9.1-30.3
		l0,0l0.2-0.4l0,0c7.1-12.7,28.2-24.6,39.6-31c2.7-1.5,5.8-3.3,6.5-3.8c0,0-0.5,0.5-0.8,1.4c0.5-1.7,1.8-8.2,1.8-9.4
		c0,0.9,0.7,2.4,2.3,3c1.4,0.5,3,0.2,4-0.9c0,0-1.2,1.4-1.2,1.4c-4.2,5-9.4,11.2-21.9,9.3c-4.8-0.7-8.7-3.1-11.1-6.9
		c-3.7-5.9-3.9-15-0.6-25.7c7.5-24.2,5.2-29.7,4.3-30.8c-0.2-0.2-0.5-0.7-2.1-0.5l0,0l-3.6,0.2L332.4,203.1L332.4,203.1L332.4,203.1
		z M360.6,282.6c1.2,0.8,2.5,0.6,3.1,0.4c-2.9,1.1-18.4,16.8-27.8,30c-1.5,2.1-0.2,3.4-0.2,3.4c-0.1-0.2-0.5-0.6-0.8-0.6
		c0.4,0,1.9-0.3,4.6-2.2c11.2-7.7,19.2-31.6,19.5-34.2c-0.1,0.8,0.3,2.4,1.8,3.3l0,0L360.6,282.6L360.6,282.6L360.6,282.6
		L360.6,282.6z"/>
	<linearGradient id="SVGID_3_" gradientUnits="userSpaceOnUse" x1="48.1291" y1="222.0765" x2="141.0421" y2="222.0765">
		<stop  offset="0" style="stop-color:#FCEE21"/>
		<stop  offset="0.1647" style="stop-color:#FCCC40"/>
		<stop  offset="0.5297" style="stop-color:#FE7790"/>
		<stop  offset="1" style="stop-color:#FF00FF"/>
	</linearGradient>
	<path class="st2" d="M52.2,182.5c0.8-1.4,19.6-35.2,79.9-37.9c4.9-0.2,8.5,2.6,8.9,7c0.6,7.5-3.3,22.3-10.1,27.5
		c-0.6,0.5-2.4,1.9-4.6,0.8c-1-0.5-2.2-1.5-2.2-3.8c0-0.1,0-0.2,0-0.2c0,0.1,0.1,0.2,0.1,0.3c0,0-0.6-0.6-3.1-1.1
		c-12.3-2.1-37.2,4.8-40.5,8.4c0.9-0.9,0.9-2,0.9-2.1c-0.2,3,1.5,21.9,3,24.7c-0.1-0.3-0.8-1.1-2-1.3c-1-0.2-2.1,0.1-2.8,0.8
		c2.3-2.1,14.3-12.3,25.5-10.9c3.7,0.5,6,2.3,6.6,5.6c1.6,8-0.6,14.7-2.3,20.1l0,0l-0.2,0.7l-0.5,1.6l0,0c-0.1,0.1-1.5,0.8-1.5,0.8
		c-1.7,0.8-3.1,0.2-4.5-0.4c-2.9-1.2-10.9-2.1-13.6,1.2c1.8,4.4,5.3,38.9,1.5,55.8c0,0-0.1,0.2-0.1,0.2c-1.2,5.4-1.8,7.2-7.2,11.4
		c-7.9,6.2-17.5,8.7-31.2,7.8l0,0l-2.3-0.1l0,0c0,0-0.9-2.2-0.9-2.2c-0.9-2.2,0.5-3.8,1-4.3c5-5.5,8.4-16.4,9.5-30.7
		c2-25.1-2.1-62.9-3.1-69.1c-0.7-4.2-1.7-5.2-1.7-5.2c0,0,0.5,0.4,1.6,0.2l0,0l-8.3,2.1L52.2,182.5L52.2,182.5L52.2,182.5z"/>
	<linearGradient id="SVGID_4_" gradientUnits="userSpaceOnUse" x1="114.7269" y1="234.2875" x2="199.0403" y2="234.2875">
		<stop  offset="0" style="stop-color:#FCEE21"/>
		<stop  offset="0.1647" style="stop-color:#FCCC40"/>
		<stop  offset="0.5297" style="stop-color:#FE7790"/>
		<stop  offset="1" style="stop-color:#FF00FF"/>
	</linearGradient>
	<path class="st3" d="M153.3,210.5c1.1,6.2-0.3,11.9-1.6,17.5c-1.1,4.5-2.1,8.7-1.9,13.3c0,1.2,0.3,3.3,1.9,3.4
		c2.4,0.2,6.5-3.2,7.8-10.8c1.3-8.1,4.3-23.1,9.1-31.7c3.3-6,6.7-6.5,8.9-5.9c1.9,0.5,5,2.5,4.9,10c0,2.7-0.1,4.8-0.2,6.5
		c-0.3,4.7-0.5,8.3,1,22.2c0.5,4.3,1.6,7.4,3.3,8.5c1.8,1.2,4.4,0.5,6,0c1.2-0.4,3.3-0.9,5,0.8l0,0l1.6,1.6l0,0
		c0,0.1-0.7,2.3-0.7,2.3c-3.4,9.8-8.3,15.5-14.4,17.1c-6.7,1.7-12.9-2-16.5-4.8c-0.9,1-3.4,4.4-10,8c-8.8,4.7-18.2,5.3-26.7,1.7
		c-20.4-8.8-9.2-35.3-5.5-44.1l0,0l0.6-1.5l0,0c2.3-5.7,2.9-10.5,1.5-12.5c-0.7-1.1-2.3-1.6-4.8-1.6l0,0l-7.8,0.1l4.8-6.1l0,0
		c4.9-6.2,14.2-9.4,21.8-7.5C147.8,198.5,152,203.3,153.3,210.5L153.3,210.5L153.3,210.5L153.3,210.5z"/>
	<linearGradient id="SVGID_5_" gradientUnits="userSpaceOnUse" x1="191.4316" y1="229.3275" x2="258.9793" y2="229.3275">
		<stop  offset="0" style="stop-color:#FCEE21"/>
		<stop  offset="0.1647" style="stop-color:#FCCC40"/>
		<stop  offset="0.5297" style="stop-color:#FE7790"/>
		<stop  offset="1" style="stop-color:#FF00FF"/>
	</linearGradient>
	<path class="st4" d="M201.3,194.7c2-0.8,6.5-1.4,10.3,0.4c1.2,0.6,2.7,1.7,4.2,2.8c0.9,0.7,2.5,1.9,3,2.1c-0.5-0.2-2.1-0.3-3.2,1
		c8.5-9.8,26.8-11.6,34.5-8.1c0,0,0.5,0.2,0.5,0.2c3.3,1.5,8.9,4.1,8.3,13.7c-0.5,8.9-10.4,18.4-15.6,20.9c-2.4,1.2-4.5,1.2-6.1,0.1
		c-1.4-0.9-2.1-2.5-1.9-4.3c0.4-4.9-0.7-8.3-3.4-10.1c-1.6-1.1-3.5-1.5-5.1-1.5c1.5,3.8,5.1,18.3,5.5,26.8c0.3,6.8-1,11.9-4,15.8
		c-8.9,11.4-25.4,14.4-28.2,12.3l0,0l-2.9-2.2l0,0c0,0,2.2-3,2.2-3l0,0l-0.1,0.2l0,0c8.3-13,8.4-33.8,3.4-45.1
		c-1.5-3.4-4.1-7.5-8.2-8.2l0,0l0.6,0.1h-3.1l0,0c-0.1-0.1-0.7-3.1-0.7-3.1C190.7,201.4,198.5,195.8,201.3,194.7L201.3,194.7
		L201.3,194.7L201.3,194.7z"/>
	<linearGradient id="SVGID_6_" gradientUnits="userSpaceOnUse" x1="246.2545" y1="202.4897" x2="322.8757" y2="202.4897">
		<stop  offset="0" style="stop-color:#0000FF"/>
		<stop  offset="0" style="stop-color:#1413ED"/>
		<stop  offset="0" style="stop-color:#4844BF"/>
		<stop  offset="0" style="stop-color:#9C9375"/>
		<stop  offset="0" style="stop-color:#FCEE21"/>
		<stop  offset="4.188293e-02" style="stop-color:#EFEF2D"/>
		<stop  offset="0.3158" style="stop-color:#9BF576"/>
		<stop  offset="0.558" style="stop-color:#59F9B1"/>
		<stop  offset="0.7596" style="stop-color:#29FCDB"/>
		<stop  offset="0.913" style="stop-color:#0BFEF5"/>
		<stop  offset="1" style="stop-color:#00FFFF"/>
	</linearGradient>
	<path class="st5" d="M250.4,152.6c-2.1-0.3-3.7-1.9-3.8-4c-0.2-4.8,8.5-9.7,14.9-11.2c10.8-2.4,19.7,2.7,24.4,14
		c5.1,12.4,5.5,25.1,5.3,32.7c1-0.5,2.8-1.1,6.4-0.5c8.4,0.9,16.4,7.3,20.3,16.3c7.1,16.4,8.9,52.9-9.5,63.3
		c-9.2,5.2-17.2,6.3-23.7,3.3c-3.4-1.6-7.7-4.9-10.6-12.1c-1.1,4-10.2,7.8-15.9,8.2c-1.5,0.1-9,0.5-10.7-3l0,0l-1.1-2.2l0,0
		c0,0,1.6-1.9,1.6-1.9c10.7-12.5,12.9-37.7,13.6-58.2c0.7-19.8-0.7-33.3-3.9-40.1c-2-4.2-3.9-4.3-6.1-4.5
		C251.1,152.7,250.7,152.6,250.4,152.6L250.4,152.6L250.4,152.6L250.4,152.6z M290.6,229.3c2.1,5.5,5,9.4,7.8,10.7
		c1.1,0.5,2.2,0.6,3.2,0.2c2.6-1,3.9-8.2,0.2-17.8c-3.7-9.6-8.3-13.8-10.8-12.8C288.8,210.3,286.5,218.6,290.6,229.3L290.6,229.3
		L290.6,229.3L290.6,229.3z"/>
	<linearGradient id="SVGID_7_" gradientUnits="userSpaceOnUse" x1="301.4026" y1="264.0083" x2="396.5859" y2="264.0083">
		<stop  offset="0" style="stop-color:#0000FF"/>
		<stop  offset="0" style="stop-color:#1413ED"/>
		<stop  offset="0" style="stop-color:#4844BF"/>
		<stop  offset="0" style="stop-color:#9C9375"/>
		<stop  offset="0" style="stop-color:#FCEE21"/>
		<stop  offset="4.188293e-02" style="stop-color:#EFEF2D"/>
		<stop  offset="0.3158" style="stop-color:#9BF576"/>
		<stop  offset="0.558" style="stop-color:#59F9B1"/>
		<stop  offset="0.7596" style="stop-color:#29FCDB"/>
		<stop  offset="0.913" style="stop-color:#0BFEF5"/>
		<stop  offset="1" style="stop-color:#00FFFF"/>
	</linearGradient>
	<path class="st6" d="M327.9,199.7c-0.4-4.1,3.9-7.3,8.3-8.7c5.8-1.8,13.5-1,17.7,6.7c5.1,9.5,4.5,24.7,4.1,34.7
		c-0.1,3.2-0.3,6.3-0.1,7.5c0.2,1.3,0.7,2.7,1.5,2.8c1,0.1,3-1.1,4.1-4c5.7-15.4,3.3-28.7,2-33.7c-0.9-3.4,0.5-6.6,3.3-7.6
		c1.3-0.5,5.8-1.3,9.3,6.6c6,13.5,4.3,35.4,3.2,45.6c1.1,0,4.1-0.5,9.4,0.3c3.2,0.5,4.7,4.1,5.1,5.2c1,2.8,0.7,5.5-0.9,7.2
		c-0.8,0.9-2.7,2.3-6.1,1.5c-4.7-1.1-10.1-0.6-10.9,2.3c-2.2,7.8-15.3,32-19.4,37.9c-4,5.7-18,22.1-34.6,30
		c-8.6,4.1-14.2,4.9-18,2.7c-4.1-2.4-4.5-7.3-4.6-9c-0.9-12.2,2.9-19,9.1-30.3l0,0l0.2-0.4l0,0c6.7-12.1,26.1-23.4,37.7-29.9
		c-1.9,0.4-5.5,0.1-7.4-0.1c-4.8-0.7-8.7-3.1-11.1-6.9c-3.7-5.9-3.9-15-0.6-25.7c7.5-24.2,5.2-29.7,4.3-30.8
		c-0.2-0.2-0.5-0.7-2.1-0.5l0,0l-3.6,0.2L327.9,199.7L327.9,199.7L327.9,199.7z M351.8,283.9c-7.5,5.1-18,14.3-20.5,25.7
		c-0.3,1.3-0.3,2.1-0.3,2.6c0,0.5,1.2-0.1,3.9-2C346.1,302.4,350.5,289.7,351.8,283.9z"/>
	<linearGradient id="SVGID_8_" gradientUnits="userSpaceOnUse" x1="43.5483" y1="218.6412" x2="136.4614" y2="218.6412">
		<stop  offset="0" style="stop-color:#0000FF"/>
		<stop  offset="0" style="stop-color:#1413ED"/>
		<stop  offset="0" style="stop-color:#4844BF"/>
		<stop  offset="0" style="stop-color:#9C9375"/>
		<stop  offset="0" style="stop-color:#FCEE21"/>
		<stop  offset="4.188293e-02" style="stop-color:#EFEF2D"/>
		<stop  offset="0.3158" style="stop-color:#9BF576"/>
		<stop  offset="0.558" style="stop-color:#59F9B1"/>
		<stop  offset="0.7596" style="stop-color:#29FCDB"/>
		<stop  offset="0.913" style="stop-color:#0BFEF5"/>
		<stop  offset="1" style="stop-color:#00FFFF"/>
	</linearGradient>
	<path class="st7" d="M51.8,184.4l-8.3,2.1l4-7.5c0.8-1.4,19.6-35.2,79.9-37.9c4.9-0.2,8.5,2.6,8.9,7c0.6,7.5-3.3,22.3-10.1,27.5
		c-0.6,0.5-2.4,1.9-4.6,0.8c-1-0.5-2.2-1.5-2.2-3.8c0-0.1,0-0.2,0-0.2c0,0.1,0.1,0.2,0.1,0.3c0,0-0.6-0.6-3.1-1.1
		c-11.4-2-33.9,3.9-39.5,7.6c0.1,0.8,0.9,13.2,2,19.7c0.7-0.6,10.4-9.1,21.6-7.7c3.7,0.5,6,2.3,6.6,5.6c1.6,8-0.6,14.7-2.3,20.1
		l-0.2,0.7l-0.5,1.6c-0.1,0.1-1.5,0.8-1.5,0.8c-1.7,0.8-3.1,0.2-4.5-0.4c-2.9-1.2-10.4-1.5-13.6,1.2c4.8,20.1,5.3,38.9,1.5,55.8
		c0,0-0.1,0.2-0.1,0.2c-1.2,5.4-1.8,7.2-7.2,11.4c-7.9,6.2-17.5,8.7-31.2,7.8l-2.3-0.1c0,0-0.9-2.2-0.9-2.2c-0.9-2.2,0.5-3.8,1-4.3
		c5-5.5,8.4-16.4,9.5-30.7c2-25.1-2.1-62.9-3.1-69.1c-0.5-2.7-1-4.1-1.4-4.7"/>
	<linearGradient id="SVGID_9_" gradientUnits="userSpaceOnUse" x1="110.1466" y1="230.8522" x2="194.4596" y2="230.8522">
		<stop  offset="0" style="stop-color:#0000FF"/>
		<stop  offset="0" style="stop-color:#1413ED"/>
		<stop  offset="0" style="stop-color:#4844BF"/>
		<stop  offset="0" style="stop-color:#9C9375"/>
		<stop  offset="0" style="stop-color:#FCEE21"/>
		<stop  offset="4.188293e-02" style="stop-color:#EFEF2D"/>
		<stop  offset="0.3158" style="stop-color:#9BF576"/>
		<stop  offset="0.558" style="stop-color:#59F9B1"/>
		<stop  offset="0.7596" style="stop-color:#29FCDB"/>
		<stop  offset="0.913" style="stop-color:#0BFEF5"/>
		<stop  offset="1" style="stop-color:#00FFFF"/>
	</linearGradient>
	<path class="st8" d="M148.7,207c1.1,6.2-0.3,11.9-1.6,17.5c-1.1,4.5-2.1,8.7-1.9,13.3c0,1.2,0.3,3.3,1.9,3.4
		c2.4,0.2,6.5-3.2,7.8-10.8c1.3-8.1,4.3-23.1,9.1-31.7c3.3-6,6.7-6.5,8.9-5.9c1.9,0.5,5,2.5,4.9,10c0,2.7-0.1,4.8-0.2,6.5
		c-0.3,4.7-0.5,8.3,1,22.2c0.5,4.3,1.6,7.4,3.3,8.5c1.8,1.2,4.4,0.5,6,0c1.2-0.4,3.3-0.9,5,0.8l0,0l1.6,1.6l0,0
		c0,0.1-0.7,2.3-0.7,2.3c-3.4,9.8-8.3,15.5-14.4,17.1c-6.7,1.7-12.9-2-16.5-4.8c-0.8,1.1-3.4,4.4-10,8c-8.8,4.7-18.2,5.3-26.7,1.7
		c-20.4-8.8-9.2-35.3-5.5-44.1l0,0l0.6-1.5l0,0c2.3-5.7,2.9-10.5,1.5-12.5c-0.7-1.1-2.3-1.6-4.8-1.6l0,0l-7.8,0.1l4.8-6.1l0,0
		c4.9-6.2,14.2-9.4,21.8-7.5C143.2,195.1,147.4,199.9,148.7,207L148.7,207L148.7,207L148.7,207z"/>
	<linearGradient id="SVGID_10_" gradientUnits="userSpaceOnUse" x1="186.8512" y1="225.9284" x2="254.3986" y2="225.9284">
		<stop  offset="0" style="stop-color:#0000FF"/>
		<stop  offset="0" style="stop-color:#1413ED"/>
		<stop  offset="0" style="stop-color:#4844BF"/>
		<stop  offset="0" style="stop-color:#9C9375"/>
		<stop  offset="0" style="stop-color:#FCEE21"/>
		<stop  offset="4.188293e-02" style="stop-color:#EFEF2D"/>
		<stop  offset="0.3158" style="stop-color:#9BF576"/>
		<stop  offset="0.558" style="stop-color:#59F9B1"/>
		<stop  offset="0.7596" style="stop-color:#29FCDB"/>
		<stop  offset="0.913" style="stop-color:#0BFEF5"/>
		<stop  offset="1" style="stop-color:#00FFFF"/>
	</linearGradient>
	<path class="st9" d="M196.7,191.2c2-0.8,6.5-1.4,10.3,0.4c1.2,0.6,2.7,1.7,4.2,2.8c0.5,0.3,1.1,0.8,1.7,1.2
		c9.1-7.2,24.9-9.8,32.6-6.2c0,0,0.5,0.2,0.5,0.2c3.3,1.5,8.9,4.1,8.3,13.7c-0.5,8.9-10.4,18.4-15.6,20.9c-2.4,1.2-4.5,1.2-6.1,0.1
		c-1.4-0.9-2.1-2.5-1.9-4.3c0.4-4.9-0.7-8.3-3.4-10.1c-1.6-1.1-3.6-1.5-5.1-1.6c1.9,3.8,5.1,18.3,5.5,26.8c0.3,6.8-1,11.9-4,15.8
		c-8.9,11.4-25.4,14.4-28.2,12.3l0,0l-2.9-2.2l0,0c0,0,2.2-3,2.2-3l0,0l-0.1,0.2l0,0c8.3-13,8.4-33.8,3.4-45.1
		c-1.5-3.4-4.1-7.5-8.2-8.2l0,0l0.6,0.1h-3.1l0,0c-0.1-0.1-0.7-3.1-0.7-3.1C186.1,198,194,192.4,196.7,191.2L196.7,191.2
		L196.7,191.2L196.7,191.2z"/>
	<linearGradient id="SVGID_11_" gradientUnits="userSpaceOnUse" x1="238.6415" y1="153.4562" x2="301.6958" y2="262.6693">
		<stop  offset="0" style="stop-color:#FF00FF"/>
		<stop  offset="0.5385" style="stop-color:#0000FF"/>
		<stop  offset="0.5888" style="stop-color:#0014FF"/>
		<stop  offset="0.6919" style="stop-color:#0048FF"/>
		<stop  offset="0.8392" style="stop-color:#009CFF"/>
		<stop  offset="1" style="stop-color:#00FFFF"/>
	</linearGradient>
	<path class="st10" d="M287.1,230.6c4.3,11.3,10.7,15,15.8,13c5.2-2,6.6-11.4,2.3-22.6c-4.3-11.3-10.5-17-15.7-15
		C284.4,208,282.8,219.4,287.1,230.6L287.1,230.6L287.1,230.6L287.1,230.6z M250.8,148.9c-4.5-0.6,21.4-20.7,31.6,4
		c8.2,19.8,3.5,40.4,5.1,38.1c5.2-7.3,20.6-4,26.8,10.4c6.5,15,8.5,49.3-7.9,58.5c-28.4,16-31.3-16-31.5-15.3
		c-6.3,18.9-24.8,13.9-24.3,13.4c11.8-13.8,13.8-40.9,14.5-60.6C266.8,146.9,255.4,149.4,250.8,148.9L250.8,148.9L250.8,148.9
		L250.8,148.9z"/>
	<linearGradient id="SVGID_12_" gradientUnits="userSpaceOnUse" x1="307.5645" y1="211.261" x2="363.0864" y2="307.4277">
		<stop  offset="0" style="stop-color:#FF00FF"/>
		<stop  offset="0.5385" style="stop-color:#0000FF"/>
		<stop  offset="0.5888" style="stop-color:#0014FF"/>
		<stop  offset="0.6919" style="stop-color:#0048FF"/>
		<stop  offset="0.8392" style="stop-color:#009CFF"/>
		<stop  offset="1" style="stop-color:#00FFFF"/>
	</linearGradient>
	<path class="st11" d="M358,276c-0.4-0.3-26.1,12.9-30.4,32.7c-1.8,8.4,2.6,9.1,9.3,4.5C350,304.2,358.7,276.4,358,276L358,276
		L358,276L358,276z M331.6,199.3c-0.4-3.7,13.5-10.1,19.1,0.1c6.4,11.8,2.8,35.4,3.6,41c1.3,8.8,9.9,7.3,12.8-0.4
		c5.4-14.3,4.3-27.8,2.2-35.9c-0.9-3.5,2.5-5.6,5.7,1.4c7.4,16.6,2,48.8,2.4,48.7c5.4-1.6,10.5-1,13.1-0.6c2.1,0.3,4.7,7.8-0.4,6.6
		c-6.7-1.6-13.8-0.4-15.4,4.9c-2.1,7.2-14.7,30.8-18.9,36.7c-4.2,5.9-17.7,21.4-33.2,28.8c-13.3,6.3-16.8,3.6-17.3-3.2
		c-0.8-11.2,2.7-17.4,8.9-28.6c9.1-16.4,45-32.1,45.6-34.2c0.6-2.1,2.6-11.9,1.7-10.9c-4.4,5.1-8.2,11.2-19.7,9.5
		c-11.5-1.7-12.9-14.3-8.7-27.9C342.6,204.9,338.4,198.8,331.6,199.3L331.6,199.3L331.6,199.3L331.6,199.3z"/>
	<linearGradient id="SVGID_13_" gradientUnits="userSpaceOnUse" x1="60.0035" y1="167.4651" x2="115.2984" y2="263.2386">
		<stop  offset="0" style="stop-color:#FF00FF"/>
		<stop  offset="0.5385" style="stop-color:#0000FF"/>
		<stop  offset="0.5888" style="stop-color:#0014FF"/>
		<stop  offset="0.6919" style="stop-color:#0048FF"/>
		<stop  offset="0.8392" style="stop-color:#009CFF"/>
		<stop  offset="1" style="stop-color:#00FFFF"/>
	</linearGradient>
	<path class="st12" d="M50.9,180.8c0,0,17.9-33.3,76.8-35.9c2.6-0.1,4.8,1,5,3.6c0.5,6.5-3.2,20-8.6,24.2c-2.4,1.8,2.3-3.2-6.9-4.8
		c-13.1-2.2-39.4,4.8-43.8,9.5c-0.4,0.4,1.7,29.7,4.3,27.3c5.2-4.6,14.7-10.9,22.5-10c1.8,0.2,3,0.7,3.4,2.6
		c1.4,7.4-0.7,13.5-2.4,19c-0.3,1-10.5-7.3-20.6,2.9c-0.4,0.4,8.4,26.9,2,56.3c-1.1,4.9-1.2,5.9-5.9,9.5c-7.7,6.1-17,7.8-28.6,7
		c-0.6,0,8.5-5.9,10.8-33.4c2.1-25.6-2.1-63.6-3.1-70C54.1,180,50.9,180.8,50.9,180.8L50.9,180.8L50.9,180.8L50.9,180.8z"/>
	<linearGradient id="SVGID_14_" gradientUnits="userSpaceOnUse" x1="128.5601" y1="195.8725" x2="168.2149" y2="264.5566">
		<stop  offset="0" style="stop-color:#FF00FF"/>
		<stop  offset="0.5385" style="stop-color:#0000FF"/>
		<stop  offset="0.5888" style="stop-color:#0014FF"/>
		<stop  offset="0.6919" style="stop-color:#0048FF"/>
		<stop  offset="0.8392" style="stop-color:#009CFF"/>
		<stop  offset="1" style="stop-color:#00FFFF"/>
	</linearGradient>
	<path class="st13" d="M117.9,203.3c12.1-0.2,10.1,11.1,6.8,19.2c-3.1,7.7-15.1,33,2.9,40.7c17.6,7.6,33.5-7.7,34.3-11.8
		c0.1-0.7,18.3,21,28.4-7.9c0.5-1.4-13.3,7.5-15.3-11.6c-2-19.4-0.9-19.3-0.8-29.2c0.1-6.9-3.1-9-6.9-2.2
		c-3.6,6.5-6.7,18.3-8.7,30.4c-2.6,15.9-16.7,18.2-17.1,6.9c-0.4-11.1,5.4-20.2,3.6-30.2C142.3,192.4,124.4,195,117.9,203.3
		L117.9,203.3L117.9,203.3L117.9,203.3z"/>
	<linearGradient id="SVGID_15_" gradientUnits="userSpaceOnUse" x1="202.5582" y1="192.0116" x2="232.7521" y2="244.309">
		<stop  offset="0" style="stop-color:#FF00FF"/>
		<stop  offset="0.5385" style="stop-color:#0000FF"/>
		<stop  offset="0.5888" style="stop-color:#0014FF"/>
		<stop  offset="0.6919" style="stop-color:#0048FF"/>
		<stop  offset="0.8392" style="stop-color:#009CFF"/>
		<stop  offset="1" style="stop-color:#00FFFF"/>
	</linearGradient>
	<path class="st14" d="M190.6,201.4c15.9,2.7,19.8,39.4,7.3,59c-0.1,0.2,14.4-0.6,23-11.6c3.1-4,3.4-9.4,3.2-13.3
		c-0.5-10-4.5-26.4-6.8-28.5c-2.8-2.6,19-6.4,17.2,13.6c-0.4,4.8,15.6-7.5,16.1-17.3c0.4-7.5-3.5-8.9-6.7-10.4
		c-6.4-3-22.9-1.2-30.1,7.1c-0.9,1-6.1-3.9-8.4-5c-2.7-1.2-6-0.8-7.3-0.3C194.1,196.3,189.9,201.4,190.6,201.4L190.6,201.4
		L190.6,201.4L190.6,201.4z"/>
</g>
</svg>
